<?xml version="1.0" standalone="no"?><!DOCTYPE svg PUBLIC "-//W3C//DTD SVG 1.1//EN" "http://www.w3.org/Graphics/SVG/1.1/DTD/svg11.dtd"><svg t="1566372323704" class="icon" viewBox="0 0 1024 1024" version="1.1" xmlns="http://www.w3.org/2000/svg" p-id="9481" xmlns:xlink="http://www.w3.org/1999/xlink" width="32" height="32"><defs><style type="text/css"></style></defs><path d="M558.55424 209.696l-447.5 73.64v679.796c0 30.212 24.492 54.696 54.696 54.696h785.618c30.202 0 54.694-24.484 54.694-54.696V283.336z m0 0" fill="#E6E9ED" p-id="9482"></path><path d="M111.05424 283.336v679.796c0 0.908 0.032 1.806 0.07 2.696h650.478c88.04 0 166.86-55.594 196.124-138.344 19.742-55.836 35.594-112.43 48.336-166.96V283.336l-447.5-73.64z m0 0" fill="#CCD1D9" p-id="9483"></path><path d="M558.55424 209.696l-447.5 73.64s-8.086 295.28-107.36 555.46c-13.904 36.46 13.174 75.524 52.196 75.524h705.712c66.226 0 125.476-41.57 147.554-104.008 89.384-252.758 96.906-526.976 96.906-526.976z m0 0" fill="#E6E9ED" p-id="9484"></path><path d="M111.05424 100.618h895.008v182.726H111.05424z m0 0" fill="#FF7A7A" p-id="9485"></path><path d="M111.05424 206.344a150.06 150.06 0 0 0 18.954 10.312c25.132 11.406 51.866 17.196 79.468 17.196s54.344-5.79 79.47-17.196c11.672-5.296 24.078-7.976 36.89-7.976s25.226 2.68 36.89 7.976c25.134 11.406 51.868 17.196 79.47 17.196 27.6 0 54.344-5.79 79.468-17.196 11.672-5.296 24.08-7.976 36.89-7.976s25.22 2.68 36.892 7.976c25.132 11.414 51.866 17.196 79.468 17.196s54.344-5.78 79.476-17.196a88.74 88.74 0 0 1 36.884-7.976 88.636 88.636 0 0 1 36.89 7.984c25.132 11.406 51.868 17.196 79.468 17.196 27.602 0 54.344-5.79 79.478-17.196a150.412 150.412 0 0 0 18.944-10.312V100.618h-895z m0 0" fill="#D83A5C" p-id="9486"></path><path d="M950.54624 6H166.57024C126.00824 6 93.12024 38.882 93.12024 79.454a99.158 99.158 0 0 0 58.18 90.296 140.704 140.704 0 0 0 116.36 0 140.78 140.78 0 0 1 116.366 0 140.704 140.704 0 0 0 116.36 0 140.764 140.764 0 0 1 116.36 0 140.704 140.704 0 0 0 116.358 0 140.78 140.78 0 0 1 116.366 0 140.704 140.704 0 0 0 116.36 0A99.164 99.164 0 0 0 1024.00024 79.454C1024.00024 38.88 991.11824 6 950.54624 6z m0 0" fill="#E6E9ED" p-id="9487"></path><path d="M411.72024 101.882a15.452 15.452 0 0 1-15.454-15.452V59.86c0-8.54 6.92-15.454 15.452-15.454s15.454 6.914 15.454 15.454v26.57c0 8.54-6.922 15.452-15.454 15.452z m0 0M705.40024 101.882a15.452 15.452 0 0 1-15.454-15.452V59.86c0-8.54 6.92-15.454 15.452-15.454a15.448 15.448 0 0 1 15.454 15.454v26.57a15.448 15.448 0 0 1-15.454 15.452z m0 0M558.55424 116.07c-18.578 0-36.03-7.766-47.874-21.32a15.45 15.45 0 0 1 1.468-21.804 15.45 15.45 0 0 1 21.806 1.468c5.968 6.836 14.936 10.75 24.6 10.75 9.672 0 18.64-3.914 24.61-10.75a15.456 15.456 0 0 1 21.804-1.46c6.43 5.608 7.086 15.374 1.47 21.804-11.844 13.54-29.29 21.312-47.884 21.312z m0 0" fill="#434A53" p-id="9488"></path><path d="M379.62624 382.672c62.57 0 120.828 40.992 120.828 109.5 0 116.508-171 154.266-171 210.368v12.944h149.96c11.868 0 22.118 14.024 22.118 30.212 0 16.18-10.25 31.28-22.118 31.28h-192.032c-12.406 0-30.75-8.624-30.75-22.108V702.54c0-86.306 173.696-132.158 173.696-208.212 0-22.118-14.562-48.008-50.164-48.008-26.438 0-48.008 14.024-48.008 47.46 0 12.946-13.484 25.9-36.68 25.9-18.344 0-31.828-8.634-31.828-37.76 0-61.49 56.102-99.248 115.976-99.248z m0 0M651.48424 533.164c71.204 0 126.766 30.75 126.766 115.438v10.25c0 88.46-56.1 121.366-125.688 121.366-82.53 0-127.296-47.468-127.296-97.632 0-24.82 12.944-31.828 35.062-31.828 29.664 0 35.062 11.866 35.062 26.968 0 26.43 24.274 41 55.556 41 35.6 0 57.18-18.882 57.18-59.874V648.6c0-41-21.58-60.414-56.64-60.414h-79.838c-22.108 0-28.046-10.79-28.046-27.516 0-4.312 0.54-9.172 0.54-14.024l14.022-141.866c1.08-13.486 5.4-22.118 13.484-22.118h166.14c14.024 0 21.04 15.648 21.04 30.75 0 15.64-7.016 30.75-21.04 30.75h-121.366l-6.468 89z m0 0" fill="#79C08C" p-id="9489"></path></svg>