<?xml version="1.0" standalone="no"?><!DOCTYPE svg PUBLIC "-//W3C//DTD SVG 1.1//EN" "http://www.w3.org/Graphics/SVG/1.1/DTD/svg11.dtd"><svg t="1566356144294" class="icon" viewBox="0 0 1024 1024" version="1.1" xmlns="http://www.w3.org/2000/svg" p-id="9162" xmlns:xlink="http://www.w3.org/1999/xlink" width="32" height="32"><defs><style type="text/css"></style></defs><path d="M954.828015 405.907998V136.57577a13.579776 13.579776 0 0 0-13.579776-13.579776H396.695676a13.509048 13.509048 0 0 1-11.634756-6.595386l-45.142147-75.236911a13.61514 13.61514 0 0 0-11.634756-6.595386H84.307777A13.61514 13.61514 0 0 0 70.728001 48.165769v357.742229h884.100014z" fill="#B5885B" p-id="9163"></path><path d="M123.774002 335.179997h778.008012v70.728001H123.774002z" fill="#FFFFFF" p-id="9164"></path><path d="M141.456002 282.133996h742.644012v53.046001H141.456002z" fill="#E7ECED" p-id="9165"></path><path d="M159.138002 229.087996h707.280012v53.046H159.138002z" fill="#C7CAC7" p-id="9166"></path><path d="M932.248101 989.414007H91.751899a4.791822 4.791822 0 0 1-4.738776-4.06686L0.053046 411.424782a4.791822 4.791822 0 0 1 4.738776-5.516784h1014.416356c2.935212 0 5.180826 2.616936 4.738776 5.516784l-86.960077 573.922365a4.791822 4.791822 0 0 1-4.738776 4.06686z" fill="#F7B563" p-id="9167"></path><path d="M476.635999 653.456002h335.958006v212.184004h-335.958006z" fill="#EDEADA" p-id="9168"></path><path d="M547.364001 741.866004h70.728001a17.682 17.682 0 1 0 0-35.364001h-70.728001a17.682 17.682 0 1 0 0 35.364001zM688.820003 741.866004h17.682a17.682 17.682 0 1 0 0-35.364001h-17.682a17.682 17.682 0 1 0 0 35.364001zM741.866004 777.230004h-194.502003a17.682 17.682 0 1 0 0 35.364001h194.502003a17.682 17.682 0 1 0 0-35.364001z" fill="#CEC9AE" p-id="9169"></path></svg>