<?xml version="1.0" standalone="no"?><!DOCTYPE svg PUBLIC "-//W3C//DTD SVG 1.1//EN" "http://www.w3.org/Graphics/SVG/1.1/DTD/svg11.dtd"><svg t="1566376864531" class="icon" viewBox="0 0 1024 1024" version="1.1" xmlns="http://www.w3.org/2000/svg" p-id="6379" xmlns:xlink="http://www.w3.org/1999/xlink" width="32" height="32"><defs><style type="text/css"></style></defs><path d="M266.43956 479.403676c-11.05374 0-20.014014-8.960274-20.014014-20.014014v-252.026467c0-11.05374 8.960274-20.014014 20.014014-20.014014s20.014014 8.960274 20.014013 20.014014v252.027468c0 11.052739-8.960274 20.013013-20.014013 20.013013zM266.441561 849.493812c-11.05374 0-20.014014-8.960274-20.014014-20.014014l-0.002001-257.909587c0-11.05374 8.960274-20.014014 20.014014-20.014014s20.014014 8.960274 20.014013 20.014014l0.002002 257.909587c0 11.05374-8.960274 20.014014-20.014014 20.014014z" fill="#20A2DD" p-id="6380"></path><path d="M309.238527 581.233977h-85.596934c-11.05374 0-20.014014-8.960274-20.014014-20.014013v-85.595934c0-11.05374 8.960274-20.014014 20.014014-20.014014h85.596934c11.05374 0 20.014014 8.960274 20.014014 20.014014v85.595934c0 11.05374-8.960274 20.014014-20.014014 20.014013z m-65.58292-40.028027h45.568907v-45.567907h-45.568907v45.567907z" fill="#F39835" p-id="6381"></path><path d="M514.326129 591.585225c-11.05374 0-20.014014-8.960274-20.014014-20.014014V207.363195c0-11.05374 8.960274-20.014014 20.014014-20.014014s20.014014 8.960274 20.014013 20.014014v364.208016c0 11.05374-8.960274 20.014014-20.014013 20.014014zM514.32813 849.493812c-11.05374 0-20.014014-8.960274-20.014014-20.014014l-0.002001-147.597347c0-11.05374 8.960274-20.014014 20.014014-20.014014s20.014014 8.960274 20.014013 20.014014l0.002002 147.597347c0 11.05374-8.960274 20.014014-20.014014 20.014014z" fill="#20A2DD" p-id="6382"></path><path d="M557.123095 692.922181h-85.594933c-11.05374 0-20.014014-8.960274-20.014014-20.014014v-85.594933c0-11.05374 8.960274-20.014014 20.014014-20.014014h85.594933c11.05374 0 20.014014 8.960274 20.014014 20.014014v85.594933c0 11.052739-8.960274 20.014014-20.014014 20.014014z m-65.580919-40.028028h45.566905v-45.566905h-45.566905v45.566905z" fill="#F39835" p-id="6383"></path><path d="M760.279344 479.403676c-11.05374 0-20.014014-8.960274-20.014014-20.014014v-252.026467c0-11.05374 8.960274-20.014014 20.014014-20.014014s20.014014 8.960274 20.014014 20.014014v252.027468c0 11.052739-8.960274 20.013013-20.014014 20.013013zM760.281345 849.493812c-11.05374 0-20.014014-8.960274-20.014013-20.014014l-0.002002-257.909587c0-11.05374 8.960274-20.014014 20.014014-20.014014s20.014014 8.960274 20.014014 20.014014l0.002001 257.909587c0 11.05374-8.960274 20.014014-20.014014 20.014014z" fill="#20A2DD" p-id="6384"></path><path d="M803.077311 581.233977h-85.594933c-11.05374 0-20.014014-8.960274-20.014014-20.014013v-85.595934c0-11.05374 8.960274-20.014014 20.014014-20.014014h85.594933c11.05374 0 20.014014 8.960274 20.014014 20.014014v85.595934c0 11.05374-8.960274 20.014014-20.014014 20.014013z m-65.580919-40.028027h45.566905v-45.567907h-45.566905v45.567907z" fill="#F39835" p-id="6385"></path><path d="M935.321908 968.061832H71.050749c-11.05374 0-20.014014-8.960274-20.014013-20.014013V83.77666c0-11.05374 8.960274-20.014014 20.014013-20.014014h864.271159c11.05374 0 20.014014 8.960274 20.014014 20.014014v864.271159c0 11.05374-8.960274 20.014014-20.014014 20.014013zM91.064763 928.033805h824.243131V103.790674H91.064763v824.243131z" fill="#20A2DD" p-id="6386"></path></svg>